# xmcd CD database file
#
# Track frame offsets:
#	150
#	13211
#	26690
#	38784
#	53765
#	65892
#	80775
#	98029
#	120618
#	133927
#	146629
#	169976
#	187008
#	208102
#	225591
#	242910
#	257427
#	272362
#	287506
#	307947
#	319702
#
# Disc length: 4464 seconds
#
# Revision: 1
# Processed by: cddbd v1.5.1PL2 Copyright (c) Steve Scherf et al.
# Submitted via: Feurio! 1.68 - http://www.feurio.com
#
DISCID=34116e15
DTITLE=Various Artist - Spread the Word 2004
DYEAR=2004
DGENRE=Southern Gospel
TTITLE0=Greater Vision - Is It Just Me
TTITLE1=Perrys - City Not Made With Hands 
TTITLE2=Hoskins Family - Pray Down the Power
TTITLE3=Legacy Five - It's Good to Know
TTITLE4=Brian Free and Assurance - Crown of Thorns
TTITLE5=Lordsong - The Cross Was Enough
TTITLE6=Chigger Hill Boys and Terri - He Still Looks My Way
TTITLE7=Integrity Quartet - The First Time I Saw Love
TTITLE8=Mike Bowling - I've Never Seen Jesus (But I Will)
TTITLE9=McRaes - Traveling On
TTITLE10=Karen Harding - A Moment Such As This
TTITLE11=Mark Trammell Trio - According to the Scriptures
TTITLE12=Smith, White and Fairchild - Ever Near
TTITLE13=Crabb Family - The Shepherd's Call
TTITLE14=Gerald Crabb - It Ain't New
TTITLE15=Lewis Family - Mama's Flower Bed
TTITLE16=Mercy's Mark Quartet - This Jordan
TTITLE17=Signature Sound - Will the Lord Be With Me
TTITLE18=John Hagee Family - His Eye is on the Sparrow
TTITLE19=Florida Boys - America the Beautiful
TTITLE20=Gold City - I'll Say Thanks
EXTD=
EXTT0=
EXTT1=
EXTT2=
EXTT3=
EXTT4=
EXTT5=
EXTT6=
EXTT7=
EXTT8=
EXTT9=
EXTT10=
EXTT11=
EXTT12=
EXTT13=
EXTT14=
EXTT15=
EXTT16=
EXTT17=
EXTT18=
EXTT19=
EXTT20=
PLAYORDER=
